<svg xmlns="http://www.w3.org/2000/svg" viewBox="0 0 805.16 175"><defs><style>.cls-1{fill:none;}.cls-2{fill:#fff;}</style></defs><g id="레이어_2" data-name="레이어 2"><g id="WATCHA_Logo"><rect class="cls-1" width="805.16" height="175"/><polygon class="cls-2" points="0 31 31.15 31 42.34 113.74 45.94 113.5 59 31 84 31 96.53 110.14 100.15 109.9 112 0 143 0 117.07 144.05 84.75 146.2 73.07 72.5 69.93 72.5 57.97 147.98 27.5 150 0 31"/><path class="cls-2" d="M153.16,31,133.07,144h24.2L160,125.74H182.9L185.57,144H210L189.68,31Zm9.89,74.19,7-47h3l6.88,47Z"/><path class="cls-2" d="M479.68,31H443.16L423.07,144h24.2L450,125.74H472.9L475.57,144H500Zm-26.63,74.19,7-47h3l6.88,47Z"/><path class="cls-2" d="M305,29.86c-22.27,0-32.94,12.1-32.94,30.82v53.64c0,18.72,10.67,30.82,32.94,30.82s32.94-12.1,32.94-30.82V94.92H313.18v21.69c0,5.93-2.27,8-8.18,8s-8.18-2.06-8.18-8V58.39c0-5.93,2.27-8,8.18-8s8.18,2.06,8.18,8V71.18h24.76V60.68C337.94,42,327.27,29.86,305,29.86Z"/><polygon class="cls-2" points="203.3 54.51 223.7 54.51 223.7 144 248.3 144 248.3 54.51 266.3 54.51 266.3 31 203.3 31 203.3 54.51"/><polygon class="cls-2" points="391.23 75.72 373.61 75.72 373.61 31 348.85 31 348.85 144 373.61 144 373.61 98.72 391.23 98.72 391.23 144 415.99 144 415.99 31 391.23 31 391.23 75.72"/><path class="cls-2" d="M531,31h27c11.37,0,18.57,3.2,21.77,10.41,1.76,3.84,2.08,7.2,2.08,19.68s-.32,15.85-2.08,19.85c-3.2,7-10.4,10.24-21.77,10.24H545.73V144H531Zm23.37,46.9c6.08,0,9.92-1.12,11.69-5.12.79-1.76,1.12-3.37,1.12-12,0-9-.33-10.24-1.12-12.16-1.77-3.84-5.61-5-11.69-5h-8.64V77.9Z"/><path class="cls-2" d="M593.1,31h41.45V44.45H607.83V77.26h26.24v13.6H607.83v39.69h26.72V144H593.1Z"/><path class="cls-2" d="M646.56,31h25.12c14.25,0,23.53,5.44,28.17,15.53,2.56,5.92,3.36,11.36,3.36,41s-.8,35.05-3.36,41C695.21,138.56,685.93,144,671.68,144H646.56Zm23.84,99.55c8.33,0,13.13-3,15.53-8.48,1.76-3.84,2.24-7.2,2.24-34.41,0-27.53-.48-30.89-2.24-34.73-2.4-5.6-7.2-8.48-15.53-8.48h-9.12v86.1Z"/><path class="cls-2" d="M717.14,31h14.72V144H717.14Z"/><path class="cls-2" d="M786.76,121.27H759.39L755.55,144H740.82l21-113h22.57l20.8,113H790.6Zm-2.24-13L773.15,42.85h-.32l-11.2,65.46Z"/></g></g></svg>